<svg xmlns="http://www.w3.org/2000/svg" width="100%" height="100%" viewBox="0 0 1800 1220" preserveAspectRatio="xMidYMid meet" style="display:block;width:100%;height:100%;max-width:100%;max-height:100vh;" role="img" aria-labelledby="title desc">
  <title id="title">하네스 설치 프로젝트의 요구사항 라이프사이클</title>
  <desc id="desc">개발 요청 수신부터 코딩 전 사고 흐름, 초안 구현, 개발자 검토 루프, 직접 수정 반영, 최종화 검증, 커밋 확정까지의 전체 흐름</desc>
  <defs>
    <style>
      .bg { fill: #f8fafc; }
      .panel { fill: #ffffff; stroke: #cbd5e1; stroke-width: 2; rx: 18; }
      .panel-blue { fill: #eff6ff; stroke: #2563eb; stroke-width: 2; rx: 18; }
      .panel-green { fill: #f0fdf4; stroke: #16a34a; stroke-width: 2; rx: 18; }
      .panel-amber { fill: #fffbeb; stroke: #d97706; stroke-width: 2; rx: 18; }
      .panel-purple { fill: #faf5ff; stroke: #9333ea; stroke-width: 2; rx: 18; }
      .node { fill: #ffffff; stroke: #1d4ed8; stroke-width: 2; rx: 14; }
      .node-green { fill: #ffffff; stroke: #15803d; stroke-width: 2; rx: 14; }
      .node-amber { fill: #ffffff; stroke: #d97706; stroke-width: 2; rx: 14; }
      .node-red { fill: #ffffff; stroke: #dc2626; stroke-width: 2; rx: 14; }
      .diamond { fill: #ffffff; stroke: #d97706; stroke-width: 2; }
      .title { font: 800 42px "Apple SD Gothic Neo", "Noto Sans CJK KR", Arial, sans-serif; fill: #0f172a; }
      .subtitle { font: 500 20px "Apple SD Gothic Neo", "Noto Sans CJK KR", Arial, sans-serif; fill: #475569; }
      .section { font: 800 24px "Apple SD Gothic Neo", "Noto Sans CJK KR", Arial, sans-serif; fill: #0f172a; }
      .label { font: 700 18px "Apple SD Gothic Neo", "Noto Sans CJK KR", Arial, sans-serif; fill: #0f172a; }
      .small { font: 500 15px "Apple SD Gothic Neo", "Noto Sans CJK KR", Arial, sans-serif; fill: #334155; }
      .tiny { font: 700 13px "Apple SD Gothic Neo", "Noto Sans CJK KR", Arial, sans-serif; fill: #334155; }
      .phase { font: 800 18px "Apple SD Gothic Neo", "Noto Sans CJK KR", Arial, sans-serif; fill: #0f172a; }
      .badge-text { font: 800 12px "Apple SD Gothic Neo", "Noto Sans CJK KR", Arial, sans-serif; fill: #ffffff; }
      .arrow { stroke: #0f172a; stroke-width: 2.5; fill: none; marker-end: url(#arrow); }
      .arrow-soft { stroke: #64748b; stroke-width: 2; fill: none; marker-end: url(#arrow-soft); }
      .arrow-red { stroke: #dc2626; stroke-width: 2.5; fill: none; marker-end: url(#arrow-red); }
      .dash { stroke: #94a3b8; stroke-width: 2; fill: none; stroke-dasharray: 8 8; marker-end: url(#arrow-soft); }
    </style>
    <marker id="arrow" markerWidth="12" markerHeight="12" refX="10" refY="6" orient="auto">
      <path d="M2,2 L10,6 L2,10 Z" fill="#0f172a" />
    </marker>
    <marker id="arrow-soft" markerWidth="12" markerHeight="12" refX="10" refY="6" orient="auto">
      <path d="M2,2 L10,6 L2,10 Z" fill="#64748b" />
    </marker>
    <marker id="arrow-red" markerWidth="12" markerHeight="12" refX="10" refY="6" orient="auto">
      <path d="M2,2 L10,6 L2,10 Z" fill="#dc2626" />
    </marker>
  </defs>

  <rect class="bg" x="0" y="0" width="1800" height="1220" />

  <text class="title" x="60" y="70">하네스 설치 프로젝트: 요구사항 라이프사이클</text>
  <text class="subtitle" x="60" y="108">개발 요청 수신부터 초안, 재수정, 직접 수정 반영, 검증, 커밋 확정까지 이어지는 전체 흐름</text>

  <rect class="panel" x="1325" y="42" width="410" height="92" rx="18" />
  <text class="label" x="1350" y="75">범례</text>
  <rect x="1350" y="92" width="56" height="24" rx="12" fill="#2563eb" />
  <text class="badge-text" x="1361" y="109">Token</text>
  <rect x="1422" y="92" width="44" height="24" rx="12" fill="#0f766e" />
  <text class="badge-text" x="1432" y="109">Tool</text>
  <rect x="1482" y="92" width="54" height="24" rx="12" fill="#7c3aed" />
  <text class="badge-text" x="1493" y="109">Human</text>
  <rect x="1552" y="92" width="44" height="24" rx="12" fill="#475569" />
  <text class="badge-text" x="1564" y="109">Repo</text>
  <text class="tiny" x="1612" y="110">판단 / 명령 / 결정 / 파일</text>

  <g id="phases">
    <rect class="panel-green" x="60" y="158" width="240" height="58" rx="16" />
    <text class="phase" x="90" y="193">1. 요구사항 수신</text>
    <rect class="panel-blue" x="318" y="158" width="240" height="58" rx="16" />
    <text class="phase" x="348" y="193">2. 기준 탐색</text>
    <rect class="panel-amber" x="576" y="158" width="240" height="58" rx="16" />
    <text class="phase" x="606" y="193">3. 범위/충돌 판단</text>
    <rect class="panel-blue" x="834" y="158" width="240" height="58" rx="16" />
    <text class="phase" x="864" y="193">4. 초안 구현</text>
    <rect class="panel-purple" x="1092" y="158" width="240" height="58" rx="16" />
    <text class="phase" x="1122" y="193">5. 개발자 검토</text>
    <rect class="panel-amber" x="1350" y="158" width="240" height="58" rx="16" />
    <text class="phase" x="1380" y="193">6. 최종화 검증</text>
    <rect class="panel-green" x="1608" y="158" width="132" height="58" rx="16" />
    <text class="phase" x="1632" y="193">7. 확정</text>
  </g>

  <rect class="panel-blue" x="60" y="250" width="720" height="375" rx="18" />
  <text class="section" x="90" y="292">코딩 전 사고 흐름</text>
  <text class="small" x="90" y="320">요청 구현 전 확인: 기준, 우선순위, 영향 범위, 충돌 가능성을 먼저 살핀다</text>

  <rect class="node-green" x="90" y="355" width="170" height="72" rx="14" />
  <text class="label" x="114" y="383">개발 요청</text>
  <text class="small" x="114" y="407">목표/범위/완료조건</text>
  <rect x="204" y="361" width="54" height="22" rx="11" fill="#7c3aed" />
  <text class="badge-text" x="215" y="377">Human</text>

  <path class="arrow" d="M260 391 H315" />
  <rect class="node" x="315" y="355" width="180" height="72" rx="14" />
  <text class="label" x="339" y="383">진입점 읽기</text>
  <text class="small" x="339" y="407">CLAUDE / AGENTS</text>
  <rect x="435" y="361" width="56" height="22" rx="11" fill="#2563eb" />
  <text class="badge-text" x="446" y="377">Token</text>

  <path class="arrow" d="M495 391 H550" />
  <rect class="node" x="550" y="355" width="190" height="72" rx="14" />
  <text class="label" x="574" y="383">최소 기준 확인</text>
  <text class="small" x="574" y="407">정책 / 세션 / 상태</text>
  <rect x="680" y="361" width="56" height="22" rx="11" fill="#2563eb" />
  <text class="badge-text" x="691" y="377">Token</text>

  <path class="arrow" d="M175 427 V467" />
  <rect class="node" x="90" y="467" width="210" height="78" rx="14" />
  <text class="label" x="114" y="496">우선순위 판단</text>
  <text class="small" x="114" y="520">차단 기준 / 사용자 / 프로젝트</text>
  <rect x="236" y="473" width="56" height="22" rx="11" fill="#2563eb" />
  <text class="badge-text" x="247" y="489">Token</text>

  <path class="arrow" d="M300 506 H355" />
  <polygon class="diamond" points="445,462 535,506 445,550 355,506" />
  <text class="label" x="395" y="501">큰 작업 또는</text>
  <text class="label" x="413" y="524">낯선 영역?</text>

  <path class="arrow" d="M535 506 H585" />
  <text class="tiny" x="550" y="494">예</text>
  <rect class="node" x="585" y="467" width="190" height="78" rx="14" />
  <text class="label" x="610" y="496">sync/context</text>
  <text class="small" x="610" y="520">판단 컨텍스트 생성</text>
  <rect x="724" y="473" width="44" height="22" rx="11" fill="#0f766e" />
  <text class="badge-text" x="734" y="489">Tool</text>

  <path class="arrow" d="M445 550 V565" />
  <text class="tiny" x="455" y="562">아니오</text>
  <path class="arrow-soft" d="M662 545 V555 H486 V565" />
  <rect class="node" x="315" y="565" width="205" height="48" rx="14" />
  <text class="label" x="345" y="595">영향 범위 분석</text>
  <rect x="458" y="572" width="44" height="22" rx="11" fill="#0f766e" />
  <text class="badge-text" x="468" y="588">Tool</text>

  <path class="arrow" d="M520 589 H575" />
  <rect class="node-amber" x="575" y="565" width="190" height="48" rx="14" />
  <text class="label" x="593" y="595">영향/충돌 정리</text>
  <rect x="706" y="572" width="56" height="22" rx="11" fill="#2563eb" />
  <text class="badge-text" x="717" y="588">Token</text>

  <rect class="panel" x="830" y="250" width="395" height="375" rx="18" />
  <text class="section" x="860" y="292">초안 구현</text>
  <text class="small" x="860" y="320">기준과 영향 범위를 확인한 뒤 최소 변경으로 초안을 만든다</text>

  <rect class="node" x="870" y="356" width="315" height="58" rx="14" />
  <text class="label" x="900" y="391">관련 코드/문서 확인</text>
  <rect x="1096" y="364" width="44" height="22" rx="11" fill="#475569" />
  <text class="badge-text" x="1108" y="380">Repo</text>
  <rect x="1146" y="364" width="56" height="22" rx="11" fill="#2563eb" />
  <text class="badge-text" x="1157" y="380">Token</text>

  <path class="arrow" d="M1027 414 V448" />
  <rect class="node" x="870" y="448" width="315" height="58" rx="14" />
  <text class="label" x="900" y="483">구현 계획 수립</text>
  <rect x="1126" y="456" width="56" height="22" rx="11" fill="#2563eb" />
  <text class="badge-text" x="1137" y="472">Token</text>

  <path class="arrow" d="M1027 506 V540" />
  <rect class="node" x="870" y="540" width="315" height="58" rx="14" />
  <text class="label" x="900" y="575">코드 수정 및 자체 점검</text>
  <rect x="1062" y="548" width="44" height="22" rx="11" fill="#0f766e" />
  <text class="badge-text" x="1072" y="564">Tool</text>
  <rect x="1112" y="548" width="44" height="22" rx="11" fill="#475569" />
  <text class="badge-text" x="1124" y="564">Repo</text>
  <rect x="1162" y="548" width="56" height="22" rx="11" fill="#2563eb" />
  <text class="badge-text" x="1173" y="564">Token</text>

  <rect class="panel-purple" x="1270" y="250" width="470" height="375" rx="18" />
  <text class="section" x="1300" y="292">개발자 검토 루프</text>
  <text class="small" x="1300" y="320">재수정 프롬프트와 개발자 직접 수정까지 모두 최종 diff에 포함해 재평가</text>

  <rect class="node" x="1305" y="356" width="180" height="58" rx="14" />
  <text class="label" x="1334" y="391">초안 검토</text>
  <rect x="1422" y="364" width="54" height="22" rx="11" fill="#7c3aed" />
  <text class="badge-text" x="1433" y="380">Human</text>

  <path class="arrow" d="M1485 385 H1535" />
  <polygon class="diamond" points="1610,342 1695,385 1610,428 1525,385" />
  <text class="label" x="1610" y="382" text-anchor="middle">검토</text>
  <text class="label" x="1610" y="404" text-anchor="middle">결과?</text>

  <path class="arrow-red" d="M1588 418 V440 H1392 V452" />
  <text class="tiny" x="1472" y="435">재수정</text>
  <rect class="node-red" x="1305" y="452" width="175" height="65" rx="14" />
  <text class="label" x="1328" y="480">재수정 요청</text>
  <text class="small" x="1328" y="502">프롬프트 N회</text>
  <rect x="1418" y="459" width="56" height="22" rx="11" fill="#2563eb" />
  <text class="badge-text" x="1429" y="475">Token</text>

  <path class="dash" d="M1305 485 H1215" />
  <text class="tiny" x="1228" y="474">기존 구현 위에 보정</text>
  <path class="dash" d="M1215 485 V570 H1185" />

  <path class="arrow" d="M1632 418 V452" />
  <text class="tiny" x="1640" y="435">직접 수정</text>
  <rect class="node-amber" x="1495" y="452" width="210" height="65" rx="14" />
  <text class="label" x="1520" y="480">개발자 직접 수정</text>
  <text class="small" x="1520" y="502">사용자 소유 변경으로 간주</text>
  <rect x="1648" y="459" width="44" height="22" rx="11" fill="#475569" />
  <text class="badge-text" x="1660" y="475">Repo</text>

  <path class="arrow" d="M1600 517 V555" />
  <rect class="node" x="1465" y="555" width="270" height="50" rx="14" />
  <text class="label" x="1494" y="586">현재 diff 재확인</text>
  <rect x="1648" y="563" width="44" height="22" rx="11" fill="#0f766e" />
  <text class="badge-text" x="1658" y="579">Tool</text>

  <path class="arrow" d="M1695 385 H1730 V670 H205 V805" />
  <text class="tiny" x="1700" y="372">만족</text>

  <rect class="panel-amber" x="60" y="690" width="1210" height="390" rx="18" />
  <text class="section" x="90" y="732">커밋 전 확정</text>
  <text class="small" x="90" y="760">초안, 재수정, 직접 수정분을 하나의 최종 후보로 보고 동기화와 검증을 수행</text>

  <rect class="node" x="100" y="805" width="210" height="72" rx="14" />
  <text class="label" x="128" y="834">최종 diff 확인</text>
  <text class="small" x="128" y="858">의도치 않은 변경 제거</text>
  <rect x="258" y="812" width="44" height="22" rx="11" fill="#475569" />
  <text class="badge-text" x="270" y="828">Repo</text>

  <path class="arrow" d="M310 841 H365" />
  <rect class="node" x="365" y="805" width="250" height="72" rx="14" />
  <text class="label" x="392" y="834">문서-코드 동기화</text>
  <text class="small" x="392" y="858">rules / log / waiver</text>
  <rect x="552" y="812" width="56" height="22" rx="11" fill="#2563eb" />
  <text class="badge-text" x="563" y="828">Token</text>

  <path class="arrow" d="M615 841 H670" />
  <rect class="node" x="670" y="805" width="255" height="72" rx="14" />
  <text class="label" x="697" y="834">로컬룰 승격 후보</text>
  <text class="small" x="697" y="858">도메인 / 구조 / 워크플로우</text>
  <rect x="862" y="812" width="56" height="22" rx="11" fill="#2563eb" />
  <text class="badge-text" x="873" y="828">Token</text>

  <path class="arrow" d="M925 841 H980" />
  <rect class="node" x="980" y="805" width="245" height="72" rx="14" />
  <text class="label" x="1008" y="834">검증 실행</text>
  <text class="small" x="1008" y="858">harness:check / lint / test / build</text>
  <rect x="1173" y="812" width="44" height="22" rx="11" fill="#0f766e" />
  <text class="badge-text" x="1183" y="828">Tool</text>

  <path class="arrow" d="M1102 877 V930" />
  <polygon class="diamond" points="1102,930 1195,978 1102,1026 1009,978" />
  <text class="label" x="1102" y="985" text-anchor="middle">통과?</text>

  <path class="arrow-red" d="M1009 978 H850 V900 H205 V877" />
  <text class="tiny" x="864" y="966">No: 원인 분류 후 재수정 루프</text>

  <rect class="panel-green" x="1305" y="690" width="435" height="390" rx="18" />
  <text class="section" x="1335" y="732">커밋과 인계</text>
  <text class="small" x="1335" y="760">검증된 최종 후보를 기록 가능한 상태로 닫는다</text>

  <rect class="node-green" x="1345" y="805" width="350" height="72" rx="14" />
  <path class="arrow" d="M1195 978 H1305 V841 H1345" />
  <text class="label" x="1376" y="834">커밋 요약과 인계 정리</text>
  <text class="small" x="1376" y="858">decision-log / active-context / memory</text>
  <rect x="1574" y="812" width="56" height="22" rx="11" fill="#2563eb" />
  <text class="badge-text" x="1585" y="828">Token</text>
  <rect x="1638" y="812" width="44" height="22" rx="11" fill="#475569" />
  <text class="badge-text" x="1650" y="828">Repo</text>

  <path class="arrow" d="M1520 877 V925" />
  <rect class="node-green" x="1345" y="925" width="350" height="72" rx="14" />
  <text class="label" x="1404" y="956">개발자 커밋 확정</text>
  <text class="small" x="1404" y="980">요청 라이프사이클 종료</text>
  <rect x="1574" y="932" width="54" height="22" rx="11" fill="#7c3aed" />
  <text class="badge-text" x="1585" y="948">Human</text>
  <rect x="1636" y="932" width="44" height="22" rx="11" fill="#475569" />
  <text class="badge-text" x="1648" y="948">Repo</text>

  <path class="arrow-soft" d="M765 589 H830" />
  <path class="arrow-soft" d="M1185 570 H1270" />
  <path class="arrow-soft" d="M1600 605 V680 H205 V805" />
  <path class="arrow-soft" d="M1027 598 V650 H1395 V356" />

  <rect class="panel" x="60" y="1110" width="1680" height="62" rx="16" />
  <text class="small" x="90" y="1148">읽는 데 토큰을 쓰는 구간은 판단, 기준 해석, 요약, 충돌 분류입니다. 로컬 명령, 파일 검사, 빌드, 테스트는 Tool/Repo 구간이며 토큰보다 실제 실행 결과가 기준이 됩니다.</text>
</svg>
